# xmcd CD database file
#
# Track frame offsets:
#	150
#	24647
#	53467
#	79875
#	100750
#	121807
#	144995
#	171920
#
# Disc length: 2562 seconds
#
# Revision: 0
# Processed by: cddbd v1.5PL3 Copyright (c) Steve Scherf et al.
# Submitted via: CDex 1.51
#
DISCID=5c0a0008
DTITLE=LAREINE - BLUE ROMANCE 〜優しい花達の狂奏〜
DYEAR=1997
DGENRE=Rock
TTITLE0=Destinee 「悲劇の朝」 〜La tragedie du matin〜
TTITLE1=BLUE ROMANCE 「想い」 〜La pensee〜
TTITLE2=季節風 「思い出の風」 〜Le vent du souvenir〜
TTITLE3=SOLITUDE 「鏡の間」 〜Le salon du miroire〜
TTITLE4=悲愁の花園 「訣別の薔薇」 〜L'adieu d'avec le passe〜
TTITLE5=Feerie 「不安」 〜La inquietude〜
TTITLE6=再会の花 「希望」 〜L'espoir〜
TTITLE7=ROMANCIA 「運命の迷い」 〜La diacorde〜
EXTD=YEAR: 1997
EXTT0=
EXTT1=
EXTT2=
EXTT3=
EXTT4=
EXTT5=
EXTT6=
EXTT7=
PLAYORDER=
